{"title":"18+.Red.Sparrow.2018.720p.BluRay.x264.Hindi.Audio.LLG","magnet":"magnet:?xt=urn:btih:a02c03542c7598baea3d626727d3e2348b0585a0&dn=18%2B.Red.Sparrow.2018.720p.BluRay.x264.Hindi.Audio.LLG&tr=udp%3A%2F%2Ftracker.leechers-paradise.org%3A6969&tr=udp%3A%2F%2Fzer0day.ch%3A1337&tr=udp%3A%2F%2Fopen.demonii.com%3A1337&tr=udp%3A%2F%2Ftracker.coppersurfer.tk%3A6969&tr=udp%3A%2F%2Fexodus.desync.com%3A6969","uploader":"LifeLongg","categoryP":"video","categoryS":"hd___movies","size":"1347625998","seeders":"16","leechers":"41","description":"******************************Screenshots:********************\r\n <a href=\"\nhttp://picserver4u.com/1391.html\" rel=\"nofollow\" target=\"_NEW\">\nhttp://picserver4u.com/1391.html</a>\r\n <a href=\"\nhttp://picserver4u.com/1392.html\" rel=\"nofollow\" target=\"_NEW\">\nhttp://picserver4u.com/1392.html</a>\r\n <a href=\"\nhttp://picserver4u.com/1393.html\" rel=\"nofollow\" target=\"_NEW\">\nhttp://picserver4u.com/1393.html</a>\r\n <a href=\"\nhttp://picserver4u.com/1394.html\" rel=\"nofollow\" target=\"_NEW\">\nhttp://picserver4u.com/1394.html</a>\r\n <a href=\"\nhttp://picserver4u.com/1395.html\" rel=\"nofollow\" target=\"_NEW\">\nhttp://picserver4u.com/1395.html</a>\r\n <a href=\"\nhttp://picserver4u.com/1396.html\" rel=\"nofollow\" target=\"_NEW\">\nhttp://picserver4u.com/1396.html</a>\r\n\r\n************************************************************** \r\n\r\nComplete name                            : 18+.Red.Sparrow.2018.720p.BluRay.x264.Hindi.Audio.LLG.mp4\r\nFormat                                   : MPEG-4\r\nFormat profile                           : Base Media\r\nCodec ID                                 : isom (isom/iso2/avc1/mp41)\r\nFile size                                : 1.24 GiB\r\nDuration                                 : 2 h 20 min\r\nOverall bit rate                         : 1 267 kb/s\r\nWriting application                      : Lavf57.56.101\r\n\r\nVideo\r\nID                                       : 1\r\nFormat                                   : AVC\r\nFormat/Info                              : Advanced Video Codec\r\nFormat profile                           : High@L3.1\r\nFormat settings                          : CABAC / 4 Ref Frames\r\nFormat settings, CABAC                   : Yes\r\nFormat settings, RefFrames               : 4 frames\r\nCodec ID                                 : avc1\r\nCodec ID/Info                            : Advanced Video Coding\r\nDuration                                 : 2 h 20 min\r\nBit rate                                 : 1 200 kb/s\r\nWidth                                    : 1 280 pixels\r\nHeight                                   : 536 pixels\r\nDisplay aspect ratio                     : 2.40:1\r\nFrame rate mode                          : Constant\r\nFrame rate                               : 23.976 (23976/1000) FPS\r\nColor space                              : YUV\r\nChroma subsampling                       : 4:2:0\r\nBit depth                                : 8 bits\r\nScan type                                : Progressive\r\nBits/(Pixel*Frame)                       : 0.073\r\nStream size                              : 1.17 GiB (94%)\r\n\r\nAudio\r\nID                                       : 2\r\nFormat                                   : AAC\r\nFormat/Info                              : Advanced Audio Codec\r\nFormat profile                           : LC\r\nCodec ID                                 : mp4a-40-2\r\nDuration                                 : 2 h 20 min\r\nBit rate mode                            : Constant\r\nBit rate                                 : 64.4 kb/s\r\nChannel(s)                               : 2 channels\r\nChannel(s)_Original                      : 6 channels\r\nChannel positions                        : Front: L C R, Side: L R, LFE\r\nSampling rate                            : 48.0 kHz\r\nFrame rate                               : 46.875 FPS (1024 SPF)\r\nCompression mode                         : Lossy\r\nStream size                              : 64.5 MiB (5%)\r\nLanguage                                 : Hindi\r\nDefault                                  : Yes\r\nAlternate group                          : 1\r\nMenus                                    : 3","last_updated":"2018-05-17T12:14:03.423Z","parsed":{"xt":"urn:btih:a02c03542c7598baea3d626727d3e2348b0585a0","dn":"18 .Red.Sparrow.2018.720p.BluRay.x264.Hindi.Audio.LLG","tr":["udp://exodus.desync.com:6969","udp://open.demonii.com:1337","udp://tracker.coppersurfer.tk:6969","udp://tracker.leechers-paradise.org:6969","udp://zer0day.ch:1337"],"infoHash":"a02c03542c7598baea3d626727d3e2348b0585a0","infoHashBuffer":{"type":"Buffer","data":[160,44,3,84,44,117,152,186,234,61,98,103,39,211,226,52,139,5,133,160]},"name":"18 .Red.Sparrow.2018.720p.BluRay.x264.Hindi.Audio.LLG","announce":["udp://exodus.desync.com:6969","udp://open.demonii.com:1337","udp://tracker.coppersurfer.tk:6969","udp://tracker.leechers-paradise.org:6969","udp://zer0day.ch:1337"],"urlList":[]}}